<?xml version="1.0" encoding="utf-8"?>
<svg id="master-artboard" viewBox="0 0 32 32" xmlns="http://www.w3.org/2000/svg" width="32px" height="32px" version="1.1" style="shape-rendering:geometricPrecision; text-rendering:geometricPrecision; image-rendering:optimizeQuality; fill-rule:evenodd; clip-rule:evenodd"><rect id="ee-background" x="0" y="0" width="32" height="32" style="fill: white; fill-opacity: 0; pointer-events: none;"/>

 <metadata id="CorelCorpID_0Corel-Layer"/>
<g transform="matrix(0.264150964697519, 0, 0, 0.264150964697519, -156.75472572657333, -203.50945312395208)"><g id="g-1" transform="matrix(1, 0, 0, 1, 0, 0)">
	<g id="g-2">
		<g>
			<path class="st0" d="M654,884c-29.2,0-53-23.8-53-53s23.8-53,53-53s53,23.8,53,53S683.2,884,654,884z M654,784&#10;&#9;&#9;&#9;&#9;c-25.9,0-47,21.1-47,47s21.1,47,47,47s47-21.1,47-47S679.9,784,654,784z" style="fill: rgb(255, 255, 255); stroke: rgb(255, 255, 255); stroke-width: 3;"/>
		</g>
	</g>
</g></g><path d="M 15.750163078308105 3.314208984375 L 15.750163078308105 29.314208984375 L 21.41683006286621 28.314208984375 L 26.58349609375 24.14754295349121 L 28.75016212463379 18.314208984375 L 28.75016212463379 12.314208984375 L 26.08349609375 7.314208984375 L 21.91683006286621 4.647542476654053 L 17.91683006286621 2.9808757305145264 C 17.91683006286621 2.9808757305145264 15.750163078308105 3.314208984375 15.750163078308105 3.314208984375 Z" style="fill: rgb(255, 255, 255); fill-opacity: 1; stroke: rgb(0, 0, 0); stroke-opacity: 1; stroke-width: 0; paint-order: fill;" transform="matrix(1.012820623223225, 0, 0, 1.012820623223225, -0.03525818820382465, -0.20702199103444424)"/><path d="M 23.58349609375 17.98087501525879" style="fill: rgb(255, 255, 255); fill-opacity: 1; stroke: rgb(0, 0, 0); stroke-opacity: 1; stroke-width: 0; paint-order: stroke;"/><path d="M 20.08349609375 15.480875968933105" style="fill: rgb(255, 255, 255); fill-opacity: 1; stroke: rgb(0, 0, 0); stroke-opacity: 1; stroke-width: 0; paint-order: stroke;"/></svg>