<?xml version="1.0" encoding="utf-8"?>
<svg id="master-artboard" viewBox="0 0 32 32" xmlns="http://www.w3.org/2000/svg" width="32px" height="32px" version="1.1" style="shape-rendering:geometricPrecision; text-rendering:geometricPrecision; image-rendering:optimizeQuality; fill-rule:evenodd; clip-rule:evenodd"><rect id="ee-background" x="0" y="0" width="32" height="32" style="fill: white; fill-opacity: 0; pointer-events: none;"/>

 <metadata id="CorelCorpID_0Corel-Layer"/>
<g transform="matrix(0.264150964697519, 0, 0, 0.264150964697519, -156.75472572657333, -203.50945312395208)"><g id="g-1" transform="matrix(1, 0, 0, 1, 0, 0)">
	<g id="g-2">
		<g>
			<path class="st0" d="M654,884c-29.2,0-53-23.8-53-53s23.8-53,53-53s53,23.8,53,53S683.2,884,654,884z M654,784&#10;&#9;&#9;&#9;&#9;c-25.9,0-47,21.1-47,47s21.1,47,47,47s47-21.1,47-47S679.9,784,654,784z" style="fill: rgb(255, 255, 255); stroke: rgb(255, 255, 255); stroke-width: 3;"/>
		</g>
	</g>
</g></g><g transform="matrix(0.24666659604907182, 0, 0, 0.24666659604907182, -144.82662265055274, -7.6799948300363035)"><g id="g-3" transform="matrix(1, 0, 0, 1, 0, 0)">
	<g id="g-4">
		<path class="st0" d="M652,46c27.6,0,50,22.4,50,50s-22.4,50-50,50s-50-22.4-50-50S624.4,46,652,46z" style="fill: rgb(255, 255, 255);"/>
	</g>
</g></g></svg>